<?xml version="1.0" standalone="no"?><!DOCTYPE svg PUBLIC "-//W3C//DTD SVG 1.1//EN" "http://www.w3.org/Graphics/SVG/1.1/DTD/svg11.dtd"><svg t="1727494389956" class="icon" viewBox="0 0 1024 1024" version="1.1" xmlns="http://www.w3.org/2000/svg" p-id="1466" xmlns:xlink="http://www.w3.org/1999/xlink" width="800" height="800"><path d="M704 938.666667h-128a21.333333 21.333333 0 0 1-21.333333-21.333334V704a21.333333 21.333333 0 0 1 21.333333-21.333333h128a21.333333 21.333333 0 0 1 21.333333 21.333333v213.333333a21.333333 21.333333 0 0 1-21.333333 21.333334z" fill="#FFD764" p-id="1467"></path><path d="M896 85.333333a85.333333 85.333333 0 0 0-85.333333 85.333334 84.416 84.416 0 0 0 12.074666 43.093333l-139.648 139.648a82.944 82.944 0 0 0-86.186666 0l-139.648-139.648A84.416 84.416 0 0 0 469.333333 170.666667a85.333333 85.333333 0 0 0-170.666666 0 84.416 84.416 0 0 0 12.074666 43.093333L171.093333 353.408A84.416 84.416 0 0 0 128 341.333333a85.333333 85.333333 0 1 0 85.333333 85.333334 84.416 84.416 0 0 0-12.074666-43.093334l139.648-139.648a82.944 82.944 0 0 0 86.186666 0l139.648 139.648A84.416 84.416 0 0 0 554.666667 426.666667a85.333333 85.333333 0 0 0 170.666666 0 84.416 84.416 0 0 0-12.074666-43.093334l139.648-139.648A84.416 84.416 0 0 0 896 256a85.333333 85.333333 0 0 0 0-170.666667z" fill="#4C4C4C" p-id="1468"></path><path d="M192 938.666667H64a21.333333 21.333333 0 0 1-21.333333-21.333334V704a21.333333 21.333333 0 0 1 21.333333-21.333333h128a21.333333 21.333333 0 0 1 21.333333 21.333333v213.333333a21.333333 21.333333 0 0 1-21.333333 21.333334z" fill="#FFD764" p-id="1469"></path><path d="M448 938.666667h-128a21.333333 21.333333 0 0 1-21.333333-21.333334V448a21.333333 21.333333 0 0 1 21.333333-21.333333h128a21.333333 21.333333 0 0 1 21.333333 21.333333v469.333333a21.333333 21.333333 0 0 1-21.333333 21.333334zM960 938.666667h-128a21.333333 21.333333 0 0 1-21.333333-21.333334V490.666667a21.333333 21.333333 0 0 1 21.333333-21.333334h128a21.333333 21.333333 0 0 1 21.333333 21.333334v426.666666a21.333333 21.333333 0 0 1-21.333333 21.333334z" fill="#1FD6AA" p-id="1470"></path></svg>