<?xml version="1.0" standalone="no"?><!DOCTYPE svg PUBLIC "-//W3C//DTD SVG 1.1//EN" "http://www.w3.org/Graphics/SVG/1.1/DTD/svg11.dtd"><svg t="1727425246021" class="icon" viewBox="0 0 1024 1024" version="1.1" xmlns="http://www.w3.org/2000/svg" p-id="6148" xmlns:xlink="http://www.w3.org/1999/xlink" width="800" height="800"><path d="M938.666667 298.666667v426.666666a212.864 212.864 0 0 1-213.333334 213.333334H298.666667a213.12 213.12 0 0 1-213.333334-213.333334V298.666667a213.418667 213.418667 0 0 1 213.333334-213.333334h426.666666a213.12 213.12 0 0 1 213.333334 213.333334z" fill="#FFB531" p-id="6149"></path><path d="M347.306667 524.8v208.213333a32 32 0 0 1-64 0V524.8a32 32 0 0 1 64 0zM544 443.306667v289.706666a32 32 0 0 1-64 0v-289.706666a32 32 0 0 1 64 0zM741.12 291.413333v441.6a32 32 0 0 1-64 0V291.413333a32 32 0 0 1 64 0z" fill="#030835" p-id="6150"></path></svg>